<?xml version="1.0" encoding="UTF-8"?>
<svg version="1.1" viewBox="0 0 64 60" xmlns="http://www.w3.org/2000/svg">
<title>Group</title>
<desc>Created with Sketch.</desc>
<g fill="none" fill-rule="evenodd">
<g transform="translate(1 1)" stroke="#000">
<path transform="translate(31.299 35.624) scale(-1 1) translate(-31.299 -35.624)" d="m57.254 29.571c-2.2505-7.3327-8.7012-13.058-17.066-15.343-4.8717-1.1844-12.179-1.423-16.816 0-4.6378 1.423-6.526 2.1318-8.8445 3.652-2.634-1.2022-5.5104-1.1838-7.4578 0.087722-1.2983 0.8477-0.53856 2.341 2.2791 4.4799-1.6244 1.9629-2.7875 4.1034-3.4666 6.3812h-1.382c-2.1156 1.683e-4 -3.8378 1.5064-3.8378 3.3579v9.6697c0 1.8514 1.7221 3.3577 3.8378 3.3577h5.4746c1.0698 1.1795 3.0048 4.5743 5.805 10.184 0.75885 1.6563 1.6047 2.4845 2.5374 2.4845h4.715c1.3993 0 2.5374-1.1146 2.5374-2.4845v-2.0382c3.615 0.65043 7.2994 0.70986 11.075 0.11045v2.046c0 1.3699 1.1383 2.4835 2.5374 2.4835h4.715c1.3993 0 2.5374-1.1135 2.5374-2.4835v-5.2685c7.1077-3.8231 11.327-10.052 11.327-16.78 0-1.3266-0.18557-2.6273-0.50725-3.8967 0.96618-0.51943 3.6329 2.4646 4.497 2.9705 1.3214 0.77358-4.9026-4.6727-4.497-2.9705z" fill="#fff" fill-opacity="0" fill-rule="nonzero" stroke-linecap="round" stroke-linejoin="round" stroke-width="2"/>
<ellipse cx="30.968" cy="9.3566" rx="9.2903" ry="9.3566" fill="#EDEEF0" fill-rule="nonzero" stroke-width="2"/>
<g transform="translate(28.065 4.8333)" fill="#000" stroke-width="1.0323">
<path d="m6.4812 2.5217h-1.4833c-0.084677-0.78454-0.52558-1.513-1.1709-1.9614h2.6542c0.1606 0 0.29199-0.12609 0.29199-0.28019s-0.1314-0.28019-0.29199-0.28019h-6.1785c-0.1606 0-0.29199 0.12609-0.29199 0.28019s0.1314 0.28019 0.29199 0.28019h1.7695c1.203 0 2.1958 0.8686 2.3388 1.9614h-4.1083c-0.1606 0-0.29199 0.12609-0.29199 0.28019s0.1314 0.28019 0.29199 0.28019h4.1083c-0.146 1.1348-1.1504 1.9866-2.3388 1.9894h-1.7665c-0.16352 0.0028019-0.29491 0.13169-0.29199 0.2886 0 0.075652 0.035039 0.1485 0.090517 0.20174l4.4178 4.0096c0.1168 0.10647 0.30075 0.10087 0.41171-0.011208 0.11096-0.11488 0.10512-0.2914-0.01168-0.40068l-3.8864-3.5276h1.0336c1.5242 0 2.7827-1.1208 2.9287-2.5498h1.4833c0.1606 0 0.29199-0.12609 0.29199-0.28019s-0.1314-0.28019-0.29199-0.28019z"/>
</g>
<ellipse cx="49.548" cy="30.97" rx="2.0645" ry="2.0792" fill="#DEEBFF" fill-rule="nonzero" stroke-width="2"/>
<path d="m21.677 21.253c3.2323-1.6932 6.3291-2.5399 9.2903-2.5399 2.9612 0 6.058 0.84662 9.2903 2.5399" fill-rule="nonzero" stroke-linecap="round" stroke-width="2"/>
</g>
</g>
</svg>
