<?xml version="1.0" encoding="UTF-8"?>
<svg version="1.1" viewBox="0 0 32 36" xmlns="http://www.w3.org/2000/svg">
<title>bar-chart</title>
<desc>Created with Sketch.</desc>
<g fill="none" fill-rule="evenodd">
<g transform="translate(-555 -229)" fill="#000" fill-rule="nonzero">
<g transform="translate(555 229)">
<path d="m31.34 34.631h-1.4477v-21.792c0-1.0143-0.79604-1.8395-1.7744-1.8395h-3.2359c-0.97842 0-1.7744 0.82525-1.7744 1.8395v21.792h-3.6761v-11.918c0-1.0143-0.79598-1.8395-1.7744-1.8395h-3.2359c-0.97842 0-1.7744 0.82525-1.7744 1.8395v11.918h-3.6761v-6.1725c0-1.0143-0.79604-1.8395-1.7744-1.8395h-3.236c-0.97842 0-1.7744 0.82525-1.7744 1.8395v6.1725h-1.5258c-0.36456 0-0.66007 0.30635-0.66007 0.68428 0 0.37793 0.29551 0.68428 0.66007 0.68428h30.68c0.36456 0 0.66007-0.30635 0.66007-0.68428 0-0.37793-0.29551-0.68428-0.66007-0.68428zm-23.69 0h-4.1444v-6.1725c0-0.25969 0.20376-0.47092 0.45426-0.47092h3.2359c0.2505 0 0.45426 0.21124 0.45426 0.47092v6.1725zm10.461 0h-4.1444v-11.918c0-0.25969 0.20376-0.47092 0.45426-0.47092h3.2359c0.25043 0 0.45426 0.21124 0.45426 0.47092v11.918zm10.461 0h-4.1444v-21.792c0-0.25969 0.20376-0.47092 0.45426-0.47092h3.2359c0.2505 0 0.45426 0.21124 0.45426 0.47092v21.792z"/>
<path d="m30.998 0.75541c0.009915-0.19604-0.058074-0.39538-0.20567-0.54508-0.14759-0.1497-0.34412-0.21874-0.53739-0.20861-0.011402-5.0284e-4 -0.022663-0.001724-0.034278-0.001724h-4.2847c-0.39115 0-0.70822 0.3216-0.70822 0.71834s0.31707 0.71834 0.70822 0.71834h2.6457l-7.0012 7.1014-2.6402-2.678c-0.13279-0.13469-0.31296-0.2104-0.50078-0.2104s-0.36799 0.075713-0.50078 0.2104l-12.732 12.914c-0.27656 0.28051-0.27656 0.73537 0 1.016 0.13831 0.14015 0.31955 0.21026 0.50078 0.21026 0.18123 0 0.36254-0.07011 0.50078-0.2104l12.231-12.406 2.6402 2.678c0.27656 0.28051 0.725 0.28051 1.0016 0l7.502-7.6092v2.4287c0 0.39674 0.31707 0.71834 0.70822 0.71834s0.70822-0.3216 0.70822-0.71834v-4.0912c0-0.011709-0.001204-0.023131-0.0016997-0.034768z"/>
<circle cx="4" cy="22" r="1"/>
</g>
</g>
</g>
</svg>
