<svg xmlns="http://www.w3.org/2000/svg" width="61" height="62.528" viewBox="0 0 61 62.528"><defs><style>.a{fill:#f36a10;}.b{fill:#fcf1d8;}.c{fill:#ffe2bc;}</style></defs><g transform="translate(-706.495 388.64)"><g transform="translate(762.321 -362.671)"><g transform="translate(0 0)"><path class="a" d="M1001.863-251.517a1.017,1.017,0,0,0-1.322-.566,1.017,1.017,0,0,0-.566,1.322c.008.019.016.038.025.057a24.246,24.246,0,0,1,2.025,9.76,1.017,1.017,0,0,0,1.017,1.017,1.017,1.017,0,0,0,1.017-1.017A26.249,26.249,0,0,0,1001.863-251.517Z" transform="translate(-999.903 252.155)"/></g></g><g transform="translate(716.662 -377.893)"><g transform="translate(0 0)"><path class="a" d="M780.263-332.159a26.417,26.417,0,0,0-20.086,9.252,1.017,1.017,0,0,0,.112,1.434,1.017,1.017,0,0,0,1.434-.112,24.38,24.38,0,0,1,18.541-8.541,1.017,1.017,0,0,0,1.017-1.017A1.017,1.017,0,0,0,780.263-332.159Z" transform="translate(-759.933 332.159)"/></g></g><g transform="translate(706.495 -366.714)"><g transform="translate(0 0)"><path class="a" d="M766.565-249.595l-6.766-6.77a6.161,6.161,0,0,0-1.253-.958,5.084,5.084,0,0,0,.656-7.159,5.083,5.083,0,0,0-7.159-.656,5.083,5.083,0,0,0-.656,7.159,5.078,5.078,0,0,0,.822.789,6.019,6.019,0,0,0-1.009.807l-1.848,1.755a1.627,1.627,0,0,1-2.294-.046l-6.77-6.771a6.038,6.038,0,0,0-.942-.768,6.1,6.1,0,0,0,1.72-8.454,6.1,6.1,0,0,0-8.454-1.72,6.1,6.1,0,0,0-1.72,8.454,6.1,6.1,0,0,0,1.72,1.72,6.106,6.106,0,0,0-.942.769l-5.18,5.185-4.564-3.278a6.075,6.075,0,0,0-.849-.674,6.183,6.183,0,0,0,1.125-.985h2.589a1.017,1.017,0,0,0,1.017-1.016,1.012,1.012,0,0,0-.107-.455l-2.263-4.527a5.954,5.954,0,0,0-.782-1.576,1,1,0,0,0-.225-.289,6.054,6.054,0,0,0-8.5-1,6.049,6.049,0,0,0-1.083,1.106,1.228,1.228,0,0,0-.11.141,6.075,6.075,0,0,0-.814,1.615l-2.267,4.533a1.017,1.017,0,0,0,.452,1.365,1.02,1.02,0,0,0,.449.108h2.6a6.131,6.131,0,0,0,1.119.976,6.07,6.07,0,0,0-.909.743l-5.941,6.008a3.173,3.173,0,0,0,0,4.488,3.174,3.174,0,0,0,2.244.93,3.2,3.2,0,0,0,2.057-.757l-2.15,8.642a1.016,1.016,0,0,0,.732,1.238,1,1,0,0,0,.252.032h2.033v3.05a3.042,3.042,0,0,0,3.04,3.044,3.042,3.042,0,0,0,2.044-.787,3.042,3.042,0,0,0,4.3-.214,3.041,3.041,0,0,0,.787-2.043v-3.05h2.033a1.017,1.017,0,0,0,1.018-1.016,1.027,1.027,0,0,0-.03-.247l-2.508-10.089,1.4.725a4.011,4.011,0,0,0,1.961.457,1.092,1.092,0,0,0,.2,0c.045,0,.092.007.117.007a3.2,3.2,0,0,0,2.245-.93l1.7-1.7v15.847a3.039,3.039,0,0,0,3.03,3.048,3.039,3.039,0,0,0,2.054-.791,3.042,3.042,0,0,0,4.3-.214,3.04,3.04,0,0,0,.787-2.043v-15.847l3.254,3.253a5.373,5.373,0,0,0,5.9,1.23v11.363a3.039,3.039,0,0,0,3.03,3.048,3.038,3.038,0,0,0,2.053-.791,3.042,3.042,0,0,0,4.3-.214,3.043,3.043,0,0,0,.787-2.043v-10.862l1.7,1.6a3.174,3.174,0,0,0,4.489,0,3.174,3.174,0,0,0,.929-2.243A3.152,3.152,0,0,0,766.565-249.595Zm-11.272-14.651a3.05,3.05,0,0,1,3.05,3.05,3.05,3.05,0,0,1-3.05,3.05,3.05,3.05,0,0,1-3.05-3.05A3.05,3.05,0,0,1,755.294-264.246Zm-23.385-3.05a4.067,4.067,0,0,1,4.067-4.067,4.067,4.067,0,0,1,4.067,4.067,4.067,4.067,0,0,1-4.067,4.067A4.067,4.067,0,0,1,731.909-267.3Zm-18.277,4.067h-1.423l1.562-3.127a1.047,1.047,0,0,0,.059-.143,4.07,4.07,0,0,1,.561-1.134c.018-.021.037-.044.055-.067a4.022,4.022,0,0,1,5.626-.841,4.018,4.018,0,0,1,.841.841c.016.022.034.044.053.065a4.036,4.036,0,0,1,.563,1.136,1.1,1.1,0,0,0,.059.143l1.564,3.127h-1.423a1.018,1.018,0,0,0-.814.407,4.017,4.017,0,0,1-2.934,1.591,5.749,5.749,0,0,0-.622,0,4.02,4.02,0,0,1-2.912-1.591A1.017,1.017,0,0,0,713.632-263.229Zm51.5,16.684a1.139,1.139,0,0,1-.8.334,1.173,1.173,0,0,1-.828-.354l-3.435-3.244a1.017,1.017,0,0,0-1.437.034,1.017,1.017,0,0,0-.281.71v13.217a1.017,1.017,0,0,1-1.017,1.017,1.017,1.017,0,0,1-1.017-1.017v-7.607a1.017,1.017,0,0,0-1.017-1.017,1.017,1.017,0,0,0-1.017,1.017v7.607a1.017,1.017,0,0,1-1.017,1.017,1.017,1.017,0,0,1-1.017-1.017v-13.217a1.017,1.017,0,0,0-1.016-1.017,1.017,1.017,0,0,0-.7.277,3.345,3.345,0,0,1-4.731-.029l-.048-.05-4.982-4.982a1.017,1.017,0,0,0-1.438-.014,1.018,1.018,0,0,0-.3.732v18.3a1.017,1.017,0,0,1-1.017,1.017,1.017,1.017,0,0,1-1.017-1.017v-12.2a1.017,1.017,0,0,0-1.017-1.017,1.017,1.017,0,0,0-1.017,1.017v12.2a1.017,1.017,0,0,1-1.017,1.017,1.017,1.017,0,0,1-1.017-1.017v-18.3a1.017,1.017,0,0,0-1.017-1.016,1.017,1.017,0,0,0-.719.3l-3.431,3.432a1.143,1.143,0,0,1-.736.337c-.027,0-.1-.012-.132-.014s-.053,0-.079,0a.989.989,0,0,0-.142,0,.348.348,0,0,0-.1.015,2.093,2.093,0,0,1-.954-.232l-3.4-1.758a1.017,1.017,0,0,0-1.37.436,1.016,1.016,0,0,0-.084.712L723.5-240.93h-1.757a1.017,1.017,0,0,0-1.017,1.017v4.067a1.017,1.017,0,0,1-1.017,1.017,1.017,1.017,0,0,1-1.017-1.017v-4.067a1.017,1.017,0,0,0-1.017-1.017,1.017,1.017,0,0,0-1.017,1.017v4.067a1.017,1.017,0,0,1-1.017,1.017,1.017,1.017,0,0,1-1.017-1.017v-4.067a1.017,1.017,0,0,0-1.017-1.017h-1.746l2.737-11.013a1.017,1.017,0,0,0-.742-1.231,1.017,1.017,0,0,0-.974.279l-2.409,2.478a1.14,1.14,0,0,1-1.612.009,1.141,1.141,0,0,1-.338-.811,1.131,1.131,0,0,1,.338-.813l5.946-6.01a4.024,4.024,0,0,1,2.416-1.144c.152.011.3.024.456.024s.305-.013.456-.024a4.024,4.024,0,0,1,2.416,1.144.971.971,0,0,0,.126.108l5.33,3.827a1.017,1.017,0,0,0,1.312-.108l5.8-5.8a4.067,4.067,0,0,1,5.742,0l6.78,6.792a3.644,3.644,0,0,0,5.115.066l1.867-1.772a4.158,4.158,0,0,1,5.743,0l6.769,6.77A1.14,1.14,0,0,1,765.129-246.545Z" transform="translate(-706.495 273.4)"/></g></g><path class="b" d="M906.064-388.318l-.552-.322-.552.322a11.9,11.9,0,0,1-8.254,1.39v12.251a8.147,8.147,0,0,0,1.219,4.277,8.492,8.492,0,0,0,3.966,3.365l3.622,1.511,3.622-1.51A8.489,8.489,0,0,0,913.1-370.4a8.144,8.144,0,0,0,1.219-4.277v-12.252a11.9,11.9,0,0,1-8.254-1.39Z" transform="translate(-154.019)"/><path class="c" d="M942.988-365.523l3.622-1.51a8.489,8.489,0,0,0,3.965-3.365,8.144,8.144,0,0,0,1.219-4.277v-12.252a11.9,11.9,0,0,1-8.254-1.39l-.552-.322Z" transform="translate(-191.496)"/></g></svg>