<?xml version="1.0" encoding="UTF-8"?>
<svg version="1.1" viewBox="0 0 39 39" xmlns="http://www.w3.org/2000/svg">
<title>g123</title>
<desc>Created with Sketch.</desc>
<g fill="none" fill-rule="evenodd">
<g transform="translate(-957 -928)" fill-rule="nonzero" stroke="#100D0C" stroke-width="1.33">
<g transform="translate(958 929)">
<path d="m0.0036602 12.6c-0.014621-0.16291 0.014696-0.32655 0.08557-0.47762 0.85932-2.3913 2.1164-4.5613 4.3026-6.2557 2.0585-1.5886 4.446-2.6158 7.0734-3.2396 1.5078-0.36342 3.055-0.58634 4.616-0.66507 0.32541-0.014826 0.52547-0.0879 0.62671-0.3929 0.11926-0.33959 0.33688-0.64614 0.63153-0.88959 0.28785-0.26233 0.68626-0.40848 1.1009-0.40387 0.41467 0.0046124 0.80874 0.15958 1.0889 0.42823 0.2873 0.25033 0.49969 0.55921 0.61827 0.89912 0.094006 0.28064 0.27961 0.34313 0.56886 0.35689 1.977 0.090785 3.9309 0.41713 5.8079 0.97008 3.5927 1.059 6.5636 2.8594 8.557 5.7611 0.76651 1.1194 1.2727 2.3405 1.715 3.5806 0.096015 0.27041 0.085828 0.56133-0.028925 0.82605-0.18833 0.45653-0.75887 0.69564-1.2811 0.53693-0.25912-0.072014-0.52186-0.1705-0.66166-0.36113-0.44954-0.61-1.1462-0.75086-1.8837-0.8091-2.0633-0.16521-4.123-0.22557-6.1635 0.19063-0.20127 0.040243-0.39651 0.1059-0.60261 0.14297-0.26189 0.038071-0.47564 0.20489-0.54958 0.42891-0.16029 0.38549-0.43147 0.71591-0.92319 0.82393-0.6472 0.14191-1.2317-0.12391-1.4981-0.76462-0.14222-0.34207-0.38928-0.46174-0.73036-0.54646-1.4981-0.37278-3.0323-0.41091-4.5738-0.38972-1.2498 0.016944-2.4864 0.1059-3.6892 0.43738-0.28114 0.057548-0.51092 0.23481-0.61225 0.47233-0.31697 0.67037-0.87619 0.95313-1.521 0.79004-0.49896-0.12391-0.77375-0.46174-0.93042-0.86629-0.069223-0.19623-0.25351-0.3444-0.48208-0.38761-1.3257-0.37808-2.69-0.44268-4.0628-0.45115-1.1799-0.0063542-2.3562 0.031771-3.5168 0.24358-0.29046 0.052952-0.54235 0.12814-0.72313 0.36748-0.15896 0.2029-0.36417 0.37456-0.60261 0.5041-0.37844 0.2171-0.77616 0.32724-1.2052 0.11543-0.42906-0.21181-0.56765-0.54328-0.55078-0.97537z" fill="#E6EBEE" fill-opacity="0"/>
<path d="m13.455 26.909c-0.35583 0.55306-0.3991 0.83189-0.52998 1.4567-0.12052 0.5867 0.091261 1.2325 0.21419 1.7716 0.37241 1.6288 0.69814 3.2391 1.1079 4.8584 0.059055 0.23299 0.14998 0.52539-0.11637 0.52327-1.1666-0.0063543-3.5395 0-4.7025 0-0.25068 0-0.37603-0.11967-0.44834-0.31242-0.73759-1.9402-1.476-3.8817-2.2152-5.8247-0.086775-0.22663 0-0.43526 0.048209-0.64495 0.28445-1.0704 1.3704-1.8277 2.6213-1.8279h4.0207z"/>
<path d="m24.646 26.909c1.2293 0.054011 2.786-0.099278 4.0021 0.10194 1.0907 0.18004 1.9958 1.1808 2.0489 2.1498-0.0021171 0.10907-0.027462 0.21683-0.074723 0.31771-0.72313 1.8808-1.4463 3.7606-2.1465 5.6468-0.10847 0.29123-0.26635 0.41091-0.61827 0.40667-1.1096-0.014826-3.3263-0.014826-4.4367 0-0.34107 0-0.2303-0.49058-0.16762-0.7384 0.47124-1.8946 0.769-3.4141 1.2089-5.315 0.17837-0.77204 0.36156-1.2271 0-1.9197-0.063876-0.11543 0.16227-0.4645 0.18396-0.64983z"/>
<path d="m18.714 36.924h-3.4951c-0.36156 0-0.5773-0.070955-0.66769-0.4628-0.54235-2.3426-1.1545-5.2688-1.7221-7.6061-0.30612-1.2613 0.91717-2.8372 2.4659-3.1972 0.22695-0.055289 0.46111-0.08448 0.69661-0.086841 1.8343 0 3.6675-0.02224 5.5006 0.01059 1.7753 0.03283 3.3131 1.543 3.1408 3.0871-0.071108 0.64813-0.28322 1.2857-0.4399 1.9264-0.43026 1.7675-0.86186 4.1251-1.2668 5.8968-0.081954 0.35689-0.28564 0.43209-0.62309 0.43209h-3.5891z"/>
<path d="m11.554 24.859c-2.2283 0-3.981-1.4628-4.1433-3.4917-0.14367-1.7737 1.1781-3.4166 3.29-3.7988 0.99946-0.19443 1.8998-0.069511 2.7539 0.43736 0.14367 0.086808 0.17971 0.26903 0.14379 0.49447-0.22843 1.4252 0.054188 2.3691 0.93055 3.5352 0.1997 0.26949 0.60524 0.73499 0.42709 0.99411-0.80597 1.17-1.9754 1.7595-3.402 1.8294z"/>
<path d="m29.712 20.958c0.1506 1.8832-1.3725 3.5575-3.4852 3.8338-1.6294 0.20501-3.2285-0.52848-4.0208-1.8442-0.13743-0.18189 0.003267-0.63482 0.16161-0.80194 0.95938-1.4515 1.1995-2.2679 0.95938-3.7101-0.035519-0.21659 0.09093-0.29441 0.24153-0.38908 0.63538-0.36861 1.3741-0.5614 2.1269-0.55509 2.1454 0 3.8588 1.472 4.0165 3.4667z"/>
<path d="m18.451 14.8c2.7086-0.0074823 4.9713 2.0339 4.9699 4.4831 0 2.4056-2.2892 4.4482-4.9713 4.4407-2.7211-0.0087294-4.9853-2.0115-4.995-4.4183-8.374e-4 -2.4756 2.2306-4.4878 4.9964-4.5056z"/>
</g>
</g>
</g>
</svg>
