<?xml version="1.0" encoding="UTF-8"?>
<svg version="1.1" viewBox="0 0 33 38" xmlns="http://www.w3.org/2000/svg">
<title>Artboard 2</title>
<desc>Created with Sketch.</desc>
<g fill="none" fill-rule="evenodd">
<g transform="translate(-555 -342)" stroke="#000">
<g transform="translate(556 343)">
<path d="m21.851 35.484c-0.61681-0.00635-1.229-0.026194-1.835-0.15875-0.16315-0.039068-0.33345-0.032767-0.49345 0.018256-2.6777 0.87868-5.3578 0.87313-8.0363 0-0.36777-0.11986-0.71319 0.024606-1.0609 0.069056-4.4873 0.58103-8.4573-1.8891-9.8813-6.4381-1.0416-3.3274-0.53046-6.4738 1.0555-9.4798 1.8019-3.4131 4.4557-6.0325 7.4673-8.3034 0.2313-0.17224 0.31997-0.26591 0.14572-0.57071-0.48266-0.84535-0.31535-1.9399 0.38551-2.6495 0.18581-0.18812 0.1542-0.25559-0.022359-0.40323-0.74789-0.61278-1.414-1.3057-1.8921-2.1685-0.48805-0.88186-0.62529-1.7963-0.22668-2.7583 0.47726-1.1509 1.2968-1.5819 2.4673-1.27 0.50579 0.13256 1.0062 0.29131 1.5043 0.45323 0.51735 0.16828 0.95683 0.046038 1.3385-0.33734 0.18427-0.18415 0.36623-0.37148 0.55205-0.55563 1.266-1.239 3.0841-1.2414 4.3586-0.0047625 0.20509 0.20003 0.40478 0.40561 0.61064 0.60563 0.35621 0.34608 0.76408 0.42624 1.2421 0.30639 0.6438-0.15875 1.2514-0.45006 1.9175-0.53578 0.80957-0.10478 1.4403 0.16907 1.8689 0.87868 0.60756 1.0033 0.60833 2.0344 0.077102 3.0742-0.46801 0.91837-1.1565 1.6431-1.9275 2.2852-0.19275 0.15875-0.24827 0.23813-0.036238 0.45799 0.69203 0.69872 0.83523 1.7918 0.34773 2.6543-0.1542 0.26749-0.08327 0.36116 0.1249 0.51514 2.5251 1.878 4.7757 4.0442 6.5452 6.704 1.2336 1.8558 2.1288 3.8608 2.4457 6.1063 0.57055 4.037-1.1357 8.8567-5.3138 10.735-1.1738 0.53239-2.4462 0.79513-3.7286 0.76994z"/>
<path d="m21.996 10.09c0.020729 0.2168-0.053304 0.43361-0.11944 0.64537-0.11845 0.37815-0.30995 0.27479-0.66038 0.068067-1.2161-0.72604-2.4454-1.1976-3.7661-1.3615-1.5883-0.19222-3.1887-0.19222-4.777 0-1.3375 0.16134-2.7524 0.6266-3.9873 1.3615-0.29613 0.17773-0.41558 0.33529-0.54686 0-0.30699-0.78655-0.098712-1.7382 0.54686-2.3105 0.64557-0.57226 1.3899-0.84705 2.145-1.0084 3.0038-0.65924 6.0046-0.69453 8.9887 0.19916 0.49533 0.13948 0.96793 0.3877 1.3968 0.73361 0.49849 0.41092 0.76896 0.98823 0.77982 1.6727z" fill="#DEEBFF" fill-opacity="0"/>
<path d="m11.35 19.551c-0.18944 0-0.34973 0.16806-0.34973 0.36667 0 0.19861 0.16029 0.36667 0.34973 0.36667h1.7195 3.1184c-0.17486 1.0389-1.0346 1.8333-2.0692 1.8333h-0.17486-2.2732c-0.14572 0-0.27687 0.091667-0.32058 0.22917-0.058288 0.1375-0.029144 0.29028 0.07286 0.39722l4.9107 5.1486c0.07286 0.076389 0.16029 0.10694 0.24772 0.10694s0.17486-0.030556 0.24772-0.10694c0.13115-0.1375 0.13115-0.38194 0-0.51944l-0.74317-0.77917-3.5701-3.7278h1.6029 0.17486c1.3552-0.091667 2.4481-1.1764 2.6084-2.5667h1.7486c0.18944 0 0.34973-0.16806 0.34973-0.36667s-0.16029-0.36667-0.34973-0.36667h-1.7486c-0.087432-0.73333-0.42259-1.375-0.9326-1.8333h2.6812c0.18944 0 0.34973-0.16806 0.34973-0.36667s-0.16029-0.36667-0.34973-0.36667h-4.5173-2.4627-0.32058c-0.18944 0-0.34973 0.16806-0.34973 0.36667s0.16029 0.36667 0.34973 0.36667h0.32058 0.17486 2.2878c1.0346 0 1.9089 0.79444 2.0692 1.8333h-3.4827-1.3698v-0.015278z" fill-rule="nonzero"/>
<path d="m8 32c1.7339 2.6667 4.174 4 7.3204 4 3.1464 0 5.7062-1.3333 7.6796-4" fill-rule="nonzero" stroke-linecap="round"/>
</g>
</g>
</g>
</svg>
