<svg xmlns="http://www.w3.org/2000/svg" width="63" height="63.002" viewBox="0 0 63 63.002"><defs><style>.a{fill:#fbf0d7;}.b{fill:#fcf1d8;}.c{fill:#f36a10;}</style></defs><g transform="translate(552.773 -428.292)"><path class="a" d="M-437.474,482.11a4.84,4.84,0,0,1-4.766,4.911,4.84,4.84,0,0,1-4.766-4.911,4.84,4.84,0,0,1,4.766-4.911A4.84,4.84,0,0,1-437.474,482.11Z" transform="translate(-79.975 -36.981)"/><path class="b" d="M-468.789,507.943c-10.639,0-19.045,8.076-19.045,18.14S-479.3,544.1-468.789,544.1s19.176-8.076,19.176-18.14S-458.15,507.943-468.789,507.943Z" transform="translate(-49.103 -60.228)"/><g transform="translate(-514.153 447.715)"><path class="c" d="M-392.919,507.968l-.053-.009a1.23,1.23,0,0,0-1.41,1.02,1.231,1.231,0,0,0,1.02,1.41l.043.007a1.235,1.235,0,0,0,.2.017,1.231,1.231,0,0,0,1.212-1.031A1.231,1.231,0,0,0-392.919,507.968Z" transform="translate(394.398 -507.943)"/></g><g transform="translate(-552.773 442.278)"><g transform="translate(0)"><path class="c" d="M-491.026,506.684a3.679,3.679,0,0,0-5.2,0,1.231,1.231,0,0,0,0,1.74,1.231,1.231,0,0,0,1.74,0,1.215,1.215,0,0,1,1.717,0,1.827,1.827,0,0,1,0,2.581,2.572,2.572,0,0,1-1.831.758,2.572,2.572,0,0,1-1.83-.758l0,0c.009-.237.014-.473.014-.711a19.49,19.49,0,0,0-11.427-17.718,1.23,1.23,0,0,0-1.629.613,1.23,1.23,0,0,0,.613,1.628,17.024,17.024,0,0,1,9.982,15.476,16.929,16.929,0,0,1-7.8,14.289,1.231,1.231,0,0,0-.564,1.035v5.848a.739.739,0,0,1-.738.739h-5.906a.739.739,0,0,1-.738-.739V529.04a1.77,1.77,0,0,0-1.767-1.767H-529.1a1.77,1.77,0,0,0-1.768,1.767v2.424a.739.739,0,0,1-.738.739h-5.907a.739.739,0,0,1-.738-.739v-5.848a1.23,1.23,0,0,0-.565-1.035A16.974,16.974,0,0,1-546,514.836a1.23,1.23,0,0,0-1.352-.891,1.242,1.242,0,0,0-.181.039h-1.18a1.6,1.6,0,0,1-1.6-1.6V508.2a1.6,1.6,0,0,1,1.6-1.6h1.2a1.238,1.238,0,0,0,.165.034,1.23,1.23,0,0,0,1.351-.891,17,17,0,0,1,15.137-12.389,1.231,1.231,0,0,0,1.14-1.315,1.232,1.232,0,0,0-1.315-1.14,19.316,19.316,0,0,0-3.435.561,7.369,7.369,0,0,0-7.193-5.813h-.468a1.23,1.23,0,0,0-1.231,1.23v9.653a19.387,19.387,0,0,0-4.717,7.608h-.63a4.061,4.061,0,0,0-4.057,4.057v4.192a4.062,4.062,0,0,0,4.057,4.057h.631a19.428,19.428,0,0,0,7.371,9.828v5.191a3.2,3.2,0,0,0,3.2,3.2h5.907a3.2,3.2,0,0,0,3.2-3.2v-1.73h11.321v1.73a3.2,3.2,0,0,0,3.2,3.2h5.906a3.2,3.2,0,0,0,3.2-3.2v-5.191a19.363,19.363,0,0,0,8.059-12.517,5.032,5.032,0,0,0,2.127.468,5.018,5.018,0,0,0,3.571-1.479A4.291,4.291,0,0,0-491.026,506.684Zm-49.882-18.516a4.908,4.908,0,0,1,4.071,4.063,19.468,19.468,0,0,0-4.071,2.221Z" transform="translate(552.773 -485.648)"/></g></g><g transform="translate(-540.072 458.578)"><g transform="translate(0 0)"><path class="c" d="M-498.587,552.852a1.234,1.234,0,0,0-.87-.361,1.232,1.232,0,0,0-.87.361,1.238,1.238,0,0,0-.361.87,1.24,1.24,0,0,0,.361.87,1.24,1.24,0,0,0,.87.36,1.24,1.24,0,0,0,.87-.36,1.242,1.242,0,0,0,.361-.87A1.24,1.24,0,0,0-498.587,552.852Z" transform="translate(500.688 -552.491)"/></g></g><g transform="translate(-530.535 454.502)"><g transform="translate(0 0)"><path class="c" d="M-446.376,535.773H-460.35A1.231,1.231,0,0,0-461.58,537a1.23,1.23,0,0,0,1.23,1.231h13.974a1.23,1.23,0,0,0,1.23-1.231A1.23,1.23,0,0,0-446.376,535.773Z" transform="translate(461.58 -535.773)"/></g></g><g transform="translate(-528.84 438.947)"><g transform="translate(0 0)"><path class="c" d="M-448.105,471.988a6.529,6.529,0,0,0-6.522,6.522,6.529,6.529,0,0,0,6.522,6.522,6.529,6.529,0,0,0,6.522-6.522A6.529,6.529,0,0,0-448.105,471.988Zm0,10.582a4.065,4.065,0,0,1-4.06-4.061,4.065,4.065,0,0,1,4.06-4.061,4.065,4.065,0,0,1,4.061,4.061A4.065,4.065,0,0,1-448.105,482.57Z" transform="translate(454.627 -471.988)"/></g></g><g transform="translate(-523.551 428.292)"><g transform="translate(0 0)"><path class="c" d="M-431.707,428.292a1.231,1.231,0,0,0-1.231,1.23v5.308a1.231,1.231,0,0,0,1.231,1.23,1.23,1.23,0,0,0,1.231-1.23v-5.308A1.23,1.23,0,0,0-431.707,428.292Z" transform="translate(432.938 -428.292)"/></g></g><g transform="translate(-516.562 432.691)"><g transform="translate(0)"><path class="c" d="M-398.936,446.692a1.231,1.231,0,0,0-1.74,0l-3.241,3.24a1.231,1.231,0,0,0,0,1.74,1.227,1.227,0,0,0,.871.36,1.225,1.225,0,0,0,.87-.36l3.241-3.241A1.23,1.23,0,0,0-398.936,446.692Z" transform="translate(404.277 -446.332)"/></g></g><g transform="translate(-533.776 432.685)"><g transform="translate(0 0)"><path class="c" d="M-469.528,449.907l-3.241-3.241a1.231,1.231,0,0,0-1.74,0,1.231,1.231,0,0,0,0,1.74l3.241,3.241a1.226,1.226,0,0,0,.87.361,1.226,1.226,0,0,0,.87-.361A1.23,1.23,0,0,0-469.528,449.907Z" transform="translate(474.87 -446.306)"/></g></g><g transform="translate(-536.902 466.158)"><g transform="translate(0)"><path class="c" d="M-482.178,583.573h-4.281a1.23,1.23,0,0,0-1.231,1.231,1.23,1.23,0,0,0,1.231,1.231h.91v6.639a1.231,1.231,0,0,0,1.23,1.23,1.23,1.23,0,0,0,1.23-1.23v-6.639h.91a1.231,1.231,0,0,0,1.23-1.231A1.23,1.23,0,0,0-482.178,583.573Z" transform="translate(487.69 -583.573)"/></g></g><g transform="translate(-528.675 466.218)"><g transform="translate(0 0)"><path class="c" d="M-445.074,592.386l-3.254-7.81a1.231,1.231,0,0,0-1.136-.757,1.23,1.23,0,0,0-1.136.757l-3.254,7.81a1.231,1.231,0,0,0,.662,1.609,1.231,1.231,0,0,0,1.609-.662l.188-.452h3.861l.188.452a1.23,1.23,0,0,0,1.136.757,1.231,1.231,0,0,0,.473-.095A1.231,1.231,0,0,0-445.074,592.386Zm-5.3-1.966.9-2.172.9,2.172Z" transform="translate(453.95 -583.818)"/></g></g><g transform="translate(-516.797 466.157)"><g transform="translate(0 0)"><path class="c" d="M-399.981,588.736l2.124-3.267a1.23,1.23,0,0,0-.361-1.7,1.23,1.23,0,0,0-1.7.361l-1.529,2.351-1.529-2.351a1.23,1.23,0,0,0-1.7-.361,1.231,1.231,0,0,0-.361,1.7l2.124,3.267L-405.041,592a1.231,1.231,0,0,0,.361,1.7,1.227,1.227,0,0,0,.67.2,1.23,1.23,0,0,0,1.033-.56l1.529-2.351,1.529,2.351a1.23,1.23,0,0,0,1.033.56,1.227,1.227,0,0,0,.67-.2,1.231,1.231,0,0,0,.361-1.7Z" transform="translate(405.24 -583.568)"/></g></g></g></svg>